<svg width="1330" height="566" viewBox="0 0 1330 566" fill="none" xmlns="http://www.w3.org/2000/svg">
<g filter="url(#filter0_f_1077_172)">
<rect x="125" y="122.385" width="1036" height="325" rx="50" fill="#6A6965" fill-opacity="0.32"/>
</g>
<rect x="50" y="51.3848" width="1155" height="371" rx="50" fill="#DFDFF2"/>
<g filter="url(#filter1_di_1077_172)">
<rect x="50" y="40.3848" width="1155" height="371" rx="50" fill="white" fill-opacity="0.04" shape-rendering="crispEdges"/>
</g>
<g filter="url(#filter2_dd_1077_172)">
<circle cx="909" cy="226.385" r="172.5" stroke="black" stroke-opacity="0.01" stroke-width="5" shape-rendering="crispEdges"/>
</g>
<g filter="url(#filter3_f_1077_172)">
<rect x="519" y="127.385" width="282" height="241" rx="50" fill="white" fill-opacity="0.07"/>
</g>
<g filter="url(#filter4_f_1077_172)">
<path d="M545 133.385C572.614 133.385 595 155.771 595 183.385V306.385C595 333.999 572.614 356.385 545 356.385H426C398.386 356.385 376 333.999 376 306.385V183.385C376 155.771 398.386 133.385 426 133.385H545Z" fill="#E9E5E5" fill-opacity="0.28"/>
</g>
<g filter="url(#filter5_f_1077_172)">
<path d="M1180 242.385C1207.61 242.385 1230 264.771 1230 292.385V415.385C1230 442.999 1207.61 465.385 1180 465.385H1061C1033.39 465.385 1011 442.999 1011 415.385V292.385C1011 264.771 1033.39 242.385 1061 242.385H1180Z" fill="#E9E5E5" fill-opacity="0.28"/>
</g>
<g filter="url(#filter6_f_1077_172)">
<rect x="107" y="277.385" width="199" height="159" rx="50" fill="white" fill-opacity="0.07"/>
</g>
<g filter="url(#filter7_f_1077_172)">
<path d="M545 133.385C572.614 133.385 595 155.771 595 183.385V306.385C595 333.999 572.614 356.385 545 356.385H426C398.386 356.385 376 333.999 376 306.385V183.385C376 155.771 398.386 133.385 426 133.385H545Z" fill="#7762C1" fill-opacity="0.11"/>
</g>
<g filter="url(#filter8_f_1077_172)">
<rect x="107" y="277.385" width="199" height="159" rx="50" fill="#3A0955" fill-opacity="0.07"/>
</g>
<g filter="url(#filter9_f_1077_172)">
<path d="M1180 242.385C1207.61 242.385 1230 264.771 1230 292.385V415.385C1230 442.999 1207.61 465.385 1180 465.385H1061C1033.39 465.385 1011 442.999 1011 415.385V292.385C1011 264.771 1033.39 242.385 1061 242.385H1180Z" fill="#735AD4" fill-opacity="0.12"/>
</g>
<defs>
<filter id="filter0_f_1077_172" x="105" y="102.385" width="1076" height="365" filterUnits="userSpaceOnUse" color-interpolation-filters="sRGB">
<feFlood flood-opacity="0" result="BackgroundImageFix"/>
<feBlend mode="normal" in="SourceGraphic" in2="BackgroundImageFix" result="shape"/>
<feGaussianBlur stdDeviation="10" result="effect1_foregroundBlur_1077_172"/>
</filter>
<filter id="filter1_di_1077_172" x="0" y="0.384766" width="1255" height="471" filterUnits="userSpaceOnUse" color-interpolation-filters="sRGB">
<feFlood flood-opacity="0" result="BackgroundImageFix"/>
<feColorMatrix in="SourceAlpha" type="matrix" values="0 0 0 0 0 0 0 0 0 0 0 0 0 0 0 0 0 0 127 0" result="hardAlpha"/>
<feOffset dy="10"/>
<feGaussianBlur stdDeviation="25"/>
<feComposite in2="hardAlpha" operator="out"/>
<feColorMatrix type="matrix" values="0 0 0 0 1 0 0 0 0 1 0 0 0 0 1 0 0 0 1 0"/>
<feBlend mode="normal" in2="BackgroundImageFix" result="effect1_dropShadow_1077_172"/>
<feBlend mode="normal" in="SourceGraphic" in2="effect1_dropShadow_1077_172" result="shape"/>
<feColorMatrix in="SourceAlpha" type="matrix" values="0 0 0 0 0 0 0 0 0 0 0 0 0 0 0 0 0 0 127 0" result="hardAlpha"/>
<feOffset dx="20" dy="20"/>
<feGaussianBlur stdDeviation="10"/>
<feComposite in2="hardAlpha" operator="arithmetic" k2="-1" k3="1"/>
<feColorMatrix type="matrix" values="0 0 0 0 1 0 0 0 0 1 0 0 0 0 1 0 0 0 0.46 0"/>
<feBlend mode="normal" in2="shape" result="effect2_innerShadow_1077_172"/>
</filter>
<filter id="filter2_dd_1077_172" x="684" y="11.3848" width="450" height="450" filterUnits="userSpaceOnUse" color-interpolation-filters="sRGB">
<feFlood flood-opacity="0" result="BackgroundImageFix"/>
<feColorMatrix in="SourceAlpha" type="matrix" values="0 0 0 0 0 0 0 0 0 0 0 0 0 0 0 0 0 0 127 0" result="hardAlpha"/>
<feOffset dy="4"/>
<feGaussianBlur stdDeviation="2"/>
<feComposite in2="hardAlpha" operator="out"/>
<feColorMatrix type="matrix" values="0 0 0 0 0 0 0 0 0 0 0 0 0 0 0 0 0 0 0.25 0"/>
<feBlend mode="normal" in2="BackgroundImageFix" result="effect1_dropShadow_1077_172"/>
<feColorMatrix in="SourceAlpha" type="matrix" values="0 0 0 0 0 0 0 0 0 0 0 0 0 0 0 0 0 0 127 0" result="hardAlpha"/>
<feOffset dy="10"/>
<feGaussianBlur stdDeviation="25"/>
<feComposite in2="hardAlpha" operator="out"/>
<feColorMatrix type="matrix" values="0 0 0 0 1 0 0 0 0 1 0 0 0 0 1 0 0 0 1 0"/>
<feBlend mode="normal" in2="effect1_dropShadow_1077_172" result="effect2_dropShadow_1077_172"/>
<feBlend mode="normal" in="SourceGraphic" in2="effect2_dropShadow_1077_172" result="shape"/>
</filter>
<filter id="filter3_f_1077_172" x="419" y="27.3848" width="482" height="441" filterUnits="userSpaceOnUse" color-interpolation-filters="sRGB">
<feFlood flood-opacity="0" result="BackgroundImageFix"/>
<feBlend mode="normal" in="SourceGraphic" in2="BackgroundImageFix" result="shape"/>
<feGaussianBlur stdDeviation="50" result="effect1_foregroundBlur_1077_172"/>
</filter>
<filter id="filter4_f_1077_172" x="276" y="33.3848" width="419" height="423" filterUnits="userSpaceOnUse" color-interpolation-filters="sRGB">
<feFlood flood-opacity="0" result="BackgroundImageFix"/>
<feBlend mode="normal" in="SourceGraphic" in2="BackgroundImageFix" result="shape"/>
<feGaussianBlur stdDeviation="50" result="effect1_foregroundBlur_1077_172"/>
</filter>
<filter id="filter5_f_1077_172" x="911" y="142.385" width="419" height="423" filterUnits="userSpaceOnUse" color-interpolation-filters="sRGB">
<feFlood flood-opacity="0" result="BackgroundImageFix"/>
<feBlend mode="normal" in="SourceGraphic" in2="BackgroundImageFix" result="shape"/>
<feGaussianBlur stdDeviation="50" result="effect1_foregroundBlur_1077_172"/>
</filter>
<filter id="filter6_f_1077_172" x="7" y="177.385" width="399" height="359" filterUnits="userSpaceOnUse" color-interpolation-filters="sRGB">
<feFlood flood-opacity="0" result="BackgroundImageFix"/>
<feBlend mode="normal" in="SourceGraphic" in2="BackgroundImageFix" result="shape"/>
<feGaussianBlur stdDeviation="50" result="effect1_foregroundBlur_1077_172"/>
</filter>
<filter id="filter7_f_1077_172" x="276" y="33.3848" width="419" height="423" filterUnits="userSpaceOnUse" color-interpolation-filters="sRGB">
<feFlood flood-opacity="0" result="BackgroundImageFix"/>
<feBlend mode="normal" in="SourceGraphic" in2="BackgroundImageFix" result="shape"/>
<feGaussianBlur stdDeviation="50" result="effect1_foregroundBlur_1077_172"/>
</filter>
<filter id="filter8_f_1077_172" x="7" y="177.385" width="399" height="359" filterUnits="userSpaceOnUse" color-interpolation-filters="sRGB">
<feFlood flood-opacity="0" result="BackgroundImageFix"/>
<feBlend mode="normal" in="SourceGraphic" in2="BackgroundImageFix" result="shape"/>
<feGaussianBlur stdDeviation="50" result="effect1_foregroundBlur_1077_172"/>
</filter>
<filter id="filter9_f_1077_172" x="911" y="142.385" width="419" height="423" filterUnits="userSpaceOnUse" color-interpolation-filters="sRGB">
<feFlood flood-opacity="0" result="BackgroundImageFix"/>
<feBlend mode="normal" in="SourceGraphic" in2="BackgroundImageFix" result="shape"/>
<feGaussianBlur stdDeviation="50" result="effect1_foregroundBlur_1077_172"/>
</filter>
</defs>
</svg>
